<svg xmlns="http://www.w3.org/2000/svg" xml:space="preserve" viewBox="0 0 564.834 565.177"><path fill="#FF7F00" fill-rule="evenodd" d="m47.109 408.28 66.351-37.44-69.754 30.63 67.404-35.51-70.609 28.61 68.409-33.54-71.413 26.54 69.353-31.54-72.153 24.46 70.233-29.52-72.827 22.37 71.057-27.48-73.443 20.24 71.823-25.4-73.998 18.11 72.528-23.32-74.492 15.96 73.172-21.2-74.922 13.79 73.755-19.08-75.29 11.63 74.277-16.94-75.595 9.44 74.736-14.78-75.836 7.25 75.131-12.61-76.014 5.04 75.466-10.42-76.129 2.84 75.735-8.24-76.178.64 75.942-6.04-76.165-1.57 76.084-3.84-76.087-3.78 76.164-1.63-75.947-5.98 76.179.58-75.741-8.18 76.13 2.79-75.473-10.37 76.018 4.98-75.141-12.55 75.842 7.19-74.747-14.72 75.602 9.38-74.289-16.88 75.299 11.57-73.77-19.03 74.933 13.74-73.188-21.15 74.499 15.91-72.542-23.27 74.012 18.06-71.841-25.35 73.461 20.19-71.081-27.42 72.841 22.31-70.252-29.47 72.172 24.41-69.377-31.5 71.427 26.5-68.429-33.49 70.639 28.55-67.439-35.46 69.779 30.58-66.38-37.39 68.86 32.59-65.266-39.31 67.886 34.58-64.1-41.18 66.86 36.53-62.883-43.02 65.773 38.45-61.61-44.82 64.64 40.33-60.295-46.59 63.445 42.2-58.921-48.32 62.191 44.01-57.492-50L137 167.73l-56.021-51.65 59.541 47.54-54.502-53.24 58.142 49.24-52.941-54.8 56.691 50.91-51.331-56.315 55.201 52.525-49.69-57.773 53.66 54.103-47.99-59.188 52.06 55.638-46.26-60.558L164 141.28l-44.49-61.867 48.76 58.557-42.67-63.132 47.04 59.942-40.83-64.34 45.29 61.28-38.95-65.494 43.5 62.564-37.05-66.594L186.27 126l-35.09-67.645 39.8 64.985-33.13-68.634 37.91 66.104-31.12-69.558 35.98 67.178-29.1-70.434 34.02 68.194-27.05-71.25 32.03 69.15-24.98-72.002 30.02 70.052-22.88-72.699 27.98 70.889-20.77-73.329 25.91 71.669-18.64-73.898L231 107.16l-16.5-74.406 21.73 73.046-14.33-74.85 19.6 73.65-12.16-75.239 17.46 74.179-9.98-75.552 15.31 74.662-7.78-75.817 13.14 75.067-5.59-76.004 10.96 75.424-3.38-76.143 8.77 75.703-1.18-76.201 6.58 75.931 1.02-76.21 4.39 76.09 3.22-76.148 2.18 76.178 5.43-76.015-.02 76.215 7.62-75.832-2.23 76.182 9.82-75.579-4.44 76.089 12.01-75.267-6.64 75.927 14.17-74.886-8.82 75.696 16.33-74.438-11.02 75.408 18.49-73.932-13.2 75.062 20.62-73.371-15.36 74.651 22.73-72.744-17.52 74.174 24.82-72.056-19.65 73.636 26.9-71.307-21.78 73.037 28.95-70.5-23.87 72.37 30.97-69.624-25.96 71.654 32.98-68.705-28.03 70.865 34.96-67.714-30.07 70.024 36.9-66.674-32.08 69.124 38.82-65.577-34.07 68.167 40.7-64.427-36.03 67.157 42.54-63.226-37.95 66.086 44.35-61.967-39.85 64.957 46.13-60.656-41.71 63.776 47.86-59.294-43.54 62.534 49.57-57.875-45.34 61.255 51.22-56.425-47.09 59.915 52.83-54.917L407.11 150l54.39-53.364-50.47 57.084 55.91-51.76-52.1 55.6 57.39-50.12-53.69 54.07 58.81-48.44-55.23 52.49 60.19-46.72-56.73 50.87 61.52-44.95-58.18 49.2 62.8-43.15-59.58 47.5 64.02-41.32-60.93 45.76 65.19-39.45-62.23 43.97 66.3-37.54-63.47 42.15 67.36-35.6-64.66 40.29 68.36-33.63-65.81 38.4 69.31-31.64-66.89 36.48 70.19-29.63-67.92 34.53 71.02-27.58-68.88 32.55 71.79-25.51-69.8 30.54 72.49-23.42-70.65 28.51 73.15-21.31-71.45 26.44 73.73-19.18-72.19 24.37 74.25-17.04-72.85 22.26 74.71-14.88-73.47 20.15 75.11-12.72-74.02 18.01 75.45-10.53-74.51 15.86 75.72-8.34-74.94 13.69 75.93-6.14-75.3 11.51 76.07-3.94-75.6 9.33 76.16-1.73-75.85 7.13 76.18.47-76.02 4.94 76.13 2.68-76.13 2.73 76.03 4.88-76.18.52 75.85 7.08-76.16-1.67 75.61 9.27-76.08-3.89 75.32 11.46-75.94-6.08 74.95 13.63-75.73-8.28 74.52 15.8-75.45-10.47 74.03 17.95-75.12-12.65 73.49 20.08-74.73-14.82 72.88 22.21-74.27-16.98 72.2 24.31-73.74-19.13 71.47 26.39-73.16-21.25 70.67 28.45-72.51-23.36 69.82 30.48-71.81-25.45 68.91 32.49-71.04-27.52 67.94 34.47-70.21-29.57 66.91 36.44-69.33-31.6 65.84 38.36-68.39-33.59 64.7 40.25-67.39-35.56 63.5 42.11-66.32-37.49 62.25 43.92-65.21-39.4 60.96 45.71-64.05-41.27 59.61 47.46-62.82-43.11 58.21 49.17-61.55-44.91 56.77 50.83-60.23-46.68 55.27 52.45-58.85-48.39 53.73 54.03-57.43-50.08 52.15 55.56-55.95-51.72 50.51 57.04-54.43-53.32 48.84 58.49-52.86-54.87 47.13 59.87-51.26-56.38 45.38 61.22-49.61-57.84 43.59 62.5-47.91-59.25 41.76 63.74-46.17-60.62 39.9 64.93-44.4-61.94 38 66.06-42.59-63.19 36.07 67.12-40.74-64.39 34.12 68.14-38.87-65.55 32.14 69.1-36.95-66.65 30.12 70.01-35.01-67.69 28.08 70.84-33.03-68.67 26.02 71.63-31.03-69.61 23.93 72.36-29-70.48 21.82 73.02-26.94-71.29 19.7 73.62-24.88-72.03 17.57 74.16-22.78-72.73 15.42 74.64-20.67-73.36 13.25 75.06-18.54-73.93 11.07 75.41-16.39-74.43 8.89 75.69-14.23-74.87 6.69 75.92L300.78 473l4.49 76.08-9.87-75.57 2.29 76.18-7.68-75.83.08 76.21-5.49-76.01-2.12 76.18-3.28-76.14-4.33 76.09-1.08-76.21-6.53 75.94 1.13-76.21-8.72 75.71 3.33-76.14-10.91 75.43 5.54-76.01-13.09 75.08 7.73-75.82-15.25 74.67 9.92-75.56-17.41 74.19 12.11-75.24-19.56 73.66 14.28-74.86-21.67 73.06 16.44-74.42-23.78 72.41 18.59-73.91-25.87 71.68 20.72-73.34-27.93 70.91 22.83-72.71-29.97 70.07 24.93-72.02-31.98 69.17 26.99-71.27-33.97 68.22 29.05-70.45-35.93 67.2 31.08-69.58-37.86 66.13 33.07-68.65-39.76 65.01 35.05-67.67-41.62 63.83 36.99-66.63-43.45 62.61 38.91-65.53-45.25 61.32 40.79-64.38-47.01 59.98 42.63-63.16-48.71 58.59 44.44-61.9-50.39 57.16 46.21-60.59-52.03 55.67 47.95-59.22-53.61 54.14 49.64-57.81-55.162 52.57 51.292-56.35-56.656 50.95 52.906-54.84-58.111 49.28 54.471-53.28-59.514 47.58 55.984-51.69-60.859 45.84 57.459-50.04-62.163 44.06 58.883-48.36-63.411 42.24 60.261-46.63-64.612 40.38 61.582-44.86-65.749 38.49 62.859-43.06-66.84 36.57 64.07-41.22-67.862 34.62 65.242-39.35z" clip-rule="evenodd"/><path fill="none" d="m47.109 408.28 66.351-37.44-69.754 30.63 67.404-35.51-70.609 28.61 68.409-33.54-71.413 26.54 69.353-31.54-72.153 24.46 70.233-29.52-72.827 22.37 71.057-27.48-73.443 20.24 71.823-25.4-73.998 18.11 72.528-23.32-74.492 15.96 73.172-21.2-74.922 13.79 73.755-19.08-75.29 11.63 74.277-16.94-75.595 9.44 74.736-14.78-75.836 7.25 75.131-12.61-76.014 5.04 75.466-10.42-76.129 2.84 75.735-8.24-76.178.64 75.942-6.04-76.165-1.57 76.084-3.84-76.087-3.78 76.164-1.63-75.947-5.98 76.179.58-75.741-8.18 76.13 2.79-75.473-10.37 76.018 4.98-75.141-12.55 75.842 7.19-74.747-14.72 75.602 9.38-74.289-16.88 75.299 11.57-73.77-19.03 74.933 13.74-73.188-21.15 74.499 15.91-72.542-23.27 74.012 18.06-71.841-25.35 73.461 20.19-71.081-27.42 72.841 22.31-70.252-29.47 72.172 24.41-69.377-31.5 71.427 26.5-68.429-33.49 70.639 28.55-67.439-35.46 69.779 30.58-66.38-37.39 68.86 32.59-65.266-39.31 67.886 34.58-64.1-41.18 66.86 36.53-62.883-43.02 65.773 38.45-61.61-44.82 64.64 40.33-60.295-46.59 63.445 42.2-58.921-48.32 62.191 44.01-57.492-50L137 167.73l-56.021-51.65 59.541 47.54-54.502-53.24 58.142 49.24-52.941-54.8 56.691 50.91-51.331-56.315 55.201 52.525-49.69-57.773 53.66 54.103-47.99-59.188 52.06 55.638-46.26-60.558L164 141.28l-44.49-61.867 48.76 58.557-42.67-63.132 47.04 59.942-40.83-64.34 45.29 61.28-38.95-65.494 43.5 62.564-37.05-66.594L186.27 126l-35.09-67.645 39.8 64.985-33.13-68.634 37.91 66.104-31.12-69.558 35.98 67.178-29.1-70.434 34.02 68.194-27.05-71.25 32.03 69.15-24.98-72.002 30.02 70.052-22.88-72.699 27.98 70.889-20.77-73.329 25.91 71.669-18.64-73.898L231 107.16l-16.5-74.406 21.73 73.046-14.33-74.85 19.6 73.65-12.16-75.239 17.46 74.179-9.98-75.552 15.31 74.662-7.78-75.817 13.14 75.067-5.59-76.004 10.96 75.424-3.38-76.143 8.77 75.703-1.18-76.201 6.58 75.931 1.02-76.21 4.39 76.09 3.22-76.148 2.18 76.178 5.43-76.015-.02 76.215 7.62-75.832-2.23 76.182 9.82-75.579-4.44 76.089 12.01-75.267-6.64 75.927 14.17-74.886-8.82 75.696 16.33-74.438-11.02 75.408 18.49-73.932-13.2 75.062 20.62-73.371-15.36 74.651 22.73-72.744-17.52 74.174 24.82-72.056-19.65 73.636 26.9-71.307-21.78 73.037 28.95-70.5-23.87 72.37 30.97-69.624-25.96 71.654 32.98-68.705-28.03 70.865 34.96-67.714-30.07 70.024 36.9-66.674-32.08 69.124 38.82-65.577-34.07 68.167 40.7-64.427-36.03 67.157 42.54-63.226-37.95 66.086 44.35-61.967-39.85 64.957 46.13-60.656-41.71 63.776 47.86-59.294-43.54 62.534 49.57-57.875-45.34 61.255 51.22-56.425-47.09 59.915 52.83-54.917L407.11 150l54.39-53.364-50.47 57.084 55.91-51.76-52.1 55.6 57.39-50.12-53.69 54.07 58.81-48.44-55.23 52.49 60.19-46.72-56.73 50.87 61.52-44.95-58.18 49.2 62.8-43.15-59.58 47.5 64.02-41.32-60.93 45.76 65.19-39.45-62.23 43.97 66.3-37.54-63.47 42.15 67.36-35.6-64.66 40.29 68.36-33.63-65.81 38.4 69.31-31.64-66.89 36.48 70.19-29.63-67.92 34.53 71.02-27.58-68.88 32.55 71.79-25.51-69.8 30.54 72.49-23.42-70.65 28.51 73.15-21.31-71.45 26.44 73.73-19.18-72.19 24.37 74.25-17.04-72.85 22.26 74.71-14.88-73.47 20.15 75.11-12.72-74.02 18.01 75.45-10.53-74.51 15.86 75.72-8.34-74.94 13.69 75.93-6.14-75.3 11.51 76.07-3.94-75.6 9.33 76.16-1.73-75.85 7.13 76.18.47-76.02 4.94 76.13 2.68-76.13 2.73 76.03 4.88-76.18.52 75.85 7.08-76.16-1.67 75.61 9.27-76.08-3.89 75.32 11.46-75.94-6.08 74.95 13.63-75.73-8.28 74.52 15.8-75.45-10.47 74.03 17.95-75.12-12.65 73.49 20.08-74.73-14.82 72.88 22.21-74.27-16.98 72.2 24.31-73.74-19.13 71.47 26.39-73.16-21.25 70.67 28.45-72.51-23.36 69.82 30.48-71.81-25.45 68.91 32.49-71.04-27.52 67.94 34.47-70.21-29.57 66.91 36.44-69.33-31.6 65.84 38.36-68.39-33.59 64.7 40.25-67.39-35.56 63.5 42.11-66.32-37.49 62.25 43.92-65.21-39.4 60.96 45.71-64.05-41.27 59.61 47.46-62.82-43.11 58.21 49.17-61.55-44.91 56.77 50.83-60.23-46.68 55.27 52.45-58.85-48.39 53.73 54.03-57.43-50.08 52.15 55.56-55.95-51.72 50.51 57.04-54.43-53.32 48.84 58.49-52.86-54.87 47.13 59.87-51.26-56.38 45.38 61.22-49.61-57.84 43.59 62.5-47.91-59.25 41.76 63.74-46.17-60.62 39.9 64.93-44.4-61.94 38 66.06-42.59-63.19 36.07 67.12-40.74-64.39 34.12 68.14-38.87-65.55 32.14 69.1-36.95-66.65 30.12 70.01-35.01-67.69 28.08 70.84-33.03-68.67 26.02 71.63-31.03-69.61 23.93 72.36-29-70.48 21.82 73.02-26.94-71.29 19.7 73.62-24.88-72.03 17.57 74.16-22.78-72.73 15.42 74.64-20.67-73.36 13.25 75.06-18.54-73.93 11.07 75.41-16.39-74.43 8.89 75.69-14.23-74.87 6.69 75.92L300.78 473l4.49 76.08-9.87-75.57 2.29 76.18-7.68-75.83.08 76.21-5.49-76.01-2.12 76.18-3.28-76.14-4.33 76.09-1.08-76.21-6.53 75.94 1.13-76.21-8.72 75.71 3.33-76.14-10.91 75.43 5.54-76.01-13.09 75.08 7.73-75.82-15.25 74.67 9.92-75.56-17.41 74.19 12.11-75.24-19.56 73.66 14.28-74.86-21.67 73.06 16.44-74.42-23.78 72.41 18.59-73.91-25.87 71.68 20.72-73.34-27.93 70.91 22.83-72.71-29.97 70.07 24.93-72.02-31.98 69.17 26.99-71.27-33.97 68.22 29.05-70.45-35.93 67.2 31.08-69.58-37.86 66.13 33.07-68.65-39.76 65.01 35.05-67.67-41.62 63.83 36.99-66.63-43.45 62.61 38.91-65.53-45.25 61.32 40.79-64.38-47.01 59.98 42.63-63.16-48.71 58.59 44.44-61.9-50.39 57.16 46.21-60.59-52.03 55.67 47.95-59.22-53.61 54.14 49.64-57.81-55.162 52.57 51.292-56.35-56.656 50.95 52.906-54.84-58.111 49.28 54.471-53.28-59.514 47.58 55.984-51.69-60.859 45.84 57.459-50.04-62.163 44.06 58.883-48.36-63.411 42.24 60.261-46.63-64.612 40.38 61.582-44.86-65.749 38.49 62.859-43.06-66.84 36.57 64.07-41.22-67.862 34.62 65.242-39.35z"/><path fill="#FF0" fill-rule="evenodd" d="M192.73 330.2 29.767 408.97l160.763-83.16-166.572 70.8 164.592-75.3-169.796 62.67 168.036-67.25-172.624 54.39 171.094-59.05-175.057 45.98 173.737-50.71L6.876 344.81l175.984-42.26L4.194 331.42l177.826-33.7L2.161 317.91 181.4 292.85.782 304.32l180.248-16.37L.061 290.69l180.819-7.65L0 277.03l180.98 1.11L.598 263.38l180.722 9.86L1.855 249.79l180.025 18.57-178.113-32.1 178.923 27.26L6.329 222.85l177.401 35.87L9.537 209.58l175.453 44.4-171.609-57.51 173.109 52.84-168.636-65.74 170.356 61.14L22.945 170.9l167.205 69.3-161.508-81.72L192.3 235.79 34.932 146.36l159.738 85.13-152.871-96.93 155.441 92.75L49.229 123.1 200.01 223.25 57.203 112.02 202.97 219.34 65.704 101.33 206.12 215.57 74.71 91.071 209.44 211.96 84.201 81.255 212.94 208.52 94.156 71.91 216.6 205.25 104.55 63.056 220.41 202.16 115.36 54.716l109 144.534-97.8-152.343 101.9 149.633-90.34-156.891 94.56 154.391-82.66-161.082 86.99 158.782-74.78-164.889 79.22 162.799-66.73-168.309 71.27 166.439-58.52-171.34 63.14 169.69-50.18-173.968L255.3 184.7 213.59 8.515 260.06 183.5 226.9 5.509l37.97 177.031L240.35 3.149l29.38 178.661L253.89 1.442l20.72 179.868L267.5.391l12.01 180.659L281.15 0l3.27 181.03L294.8.269l-5.48 180.981 19.1-180.054L294.2 181.7 321.98 2.782 299.06 182.39 335.44 5.021 303.88 183.31l44.9-175.402-40.13 176.552 53.32-173.024-48.61 174.404 61.62-170.242L318 187.45l69.76-167.067-65.21 168.897L400.3 25.781 327.01 191.33l85.55-159.551-81.2 161.811 93.16-155.228L335.6 196.06 436.15 45.516 339.72 198.74l107.7-145.516L343.7 201.6 458.3 61.466 347.54 204.66 468.78 70.226 351.23 207.9 478.82 79.482 354.75 211.31 488.4 89.211 358.11 214.89 497.5 99.393 361.29 218.63 506.09 110l-141.8 112.52 149.87-101.5L367.1 226.54l154.6-94.14-152 98.3 158.97-86.55-156.56 90.83 162.96-78.77-160.77 83.16 166.58-70.8-164.6 75.29 169.8-62.67-168.04 67.25 172.63-54.38-171.09 59.05 175.05-45.98-173.74 50.71 177.07-37.47-175.99 42.25 178.67-28.86-177.82 33.7 179.85-20.19-179.24 25.06 180.62-11.48-180.24 16.37 180.96-2.73-180.82 7.64 180.88 6.02-180.98-1.11 180.39 14.75-180.72-9.85 179.46 23.45-180.03-18.58 178.12 32.1-178.93-27.25 176.36 40.67-177.39-35.88L555.3 355.6l-175.46-44.4 171.61 57.51-173.11-52.84 168.64 65.74-170.36-61.14 165.27 73.81-167.2-69.3 161.5 81.71-163.66-77.3 157.37 89.42-159.73-85.12 152.87 96.93-155.44-92.75 148.01 104.2-150.78-100.15 142.8 111.24-145.76-107.32 137.26 118L358.72 349.6l131.4 124.5-134.73-120.89 125.24 130.71L351.9 356.66l118.78 136.61-122.44-133.34 112.04 142.19-115.85-139.1 105.05 147.44-109.01-144.54 97.81 152.35-101.9-149.64 90.33 156.9-94.55-154.39 82.65 161.08-86.99-158.78 74.78 164.88-79.22-162.79 66.73 168.31-71.26-166.44 58.52 171.34-63.15-169.69 50.18 173.97-54.87-172.54 41.72 176.18-46.48-174.99 33.16 178-37.97-177.03 24.53 179.39-29.38-178.66 15.83 180.37-20.71-179.88 7.1 180.93-12-180.67-1.64 181.06-3.27-181.04-10.38 180.77 5.48-180.98-19.1 180.05 14.21-180.5-27.77 178.92 22.91-179.61-36.38 177.37 31.56-178.29-44.9 175.4 40.13-176.55-53.32 173.02 48.62-174.41-61.62 170.25 56.98-171.86-69.76 167.07 65.21-168.89-77.75 163.5 73.29-165.56-85.56 159.56 81.2-161.82-93.16 155.23 88.92-157.7-100.55 150.55 96.44-153.22-107.71 145.51 103.72-148.38-114.6 140.14 110.76-143.19L96.055 494.95 213.61 357.28 86.018 485.7 210.08 353.87 76.438 475.96 206.72 350.29 67.34 465.78l136.2-119.23L58.744 455.17 200.54 342.66 50.67 444.16l147.07-105.53-154.602 94.14 151.992-98.29-158.965 86.55z" clip-rule="evenodd"/><path fill="none" d="M192.73 330.2 29.767 408.97l160.763-83.16-166.572 70.8 164.592-75.3-169.796 62.67 168.036-67.25-172.624 54.39 171.094-59.05-175.057 45.98 173.737-50.71L6.876 344.81l175.984-42.26L4.194 331.42l177.826-33.7L2.161 317.91 181.4 292.85.782 304.32l180.248-16.37L.061 290.69l180.819-7.65L0 277.03l180.98 1.11L.598 263.38l180.722 9.86L1.855 249.79l180.025 18.57-178.113-32.1 178.923 27.26L6.329 222.85l177.401 35.87L9.537 209.58l175.453 44.4-171.609-57.51 173.109 52.84-168.636-65.74 170.356 61.14L22.945 170.9l167.205 69.3-161.508-81.72L192.3 235.79 34.932 146.36l159.738 85.13-152.871-96.93 155.441 92.75L49.229 123.1 200.01 223.25 57.203 112.02 202.97 219.34 65.704 101.33 206.12 215.57 74.71 91.071 209.44 211.96 84.201 81.255 212.94 208.52 94.156 71.91 216.6 205.25 104.55 63.056 220.41 202.16 115.36 54.716l109 144.534-97.8-152.343 101.9 149.633-90.34-156.891 94.56 154.391-82.66-161.082 86.99 158.782-74.78-164.889 79.22 162.799-66.73-168.309 71.27 166.439-58.52-171.34 63.14 169.69-50.18-173.968L255.3 184.7 213.59 8.515 260.06 183.5 226.9 5.509l37.97 177.031L240.35 3.149l29.38 178.661L253.89 1.442l20.72 179.868L267.5.391l12.01 180.659L281.15 0l3.27 181.03L294.8.269l-5.48 180.981 19.1-180.054L294.2 181.7 321.98 2.782 299.06 182.39 335.44 5.021 303.88 183.31l44.9-175.402-40.13 176.552 53.32-173.024-48.61 174.404 61.62-170.242L318 187.45l69.76-167.067-65.21 168.897L400.3 25.781 327.01 191.33l85.55-159.551-81.2 161.811 93.16-155.228L335.6 196.06 436.15 45.516 339.72 198.74l107.7-145.516L343.7 201.6 458.3 61.466 347.54 204.66 468.78 70.226 351.23 207.9 478.82 79.482 354.75 211.31 488.4 89.211 358.11 214.89 497.5 99.393 361.29 218.63 506.09 110l-141.8 112.52 149.87-101.5L367.1 226.54l154.6-94.14-152 98.3 158.97-86.55-156.56 90.83 162.96-78.77-160.77 83.16 166.58-70.8-164.6 75.29 169.8-62.67-168.04 67.25 172.63-54.38-171.09 59.05 175.05-45.98-173.74 50.71 177.07-37.47-175.99 42.25 178.67-28.86-177.82 33.7 179.85-20.19-179.24 25.06 180.62-11.48-180.24 16.37 180.96-2.73-180.82 7.64 180.88 6.02-180.98-1.11 180.39 14.75-180.72-9.85 179.46 23.45-180.03-18.58 178.12 32.1-178.93-27.25 176.36 40.67-177.39-35.88L555.3 355.6l-175.46-44.4 171.61 57.51-173.11-52.84 168.64 65.74-170.36-61.14 165.27 73.81-167.2-69.3 161.5 81.71-163.66-77.3 157.37 89.42-159.73-85.12 152.87 96.93-155.44-92.75 148.01 104.2-150.78-100.15 142.8 111.24-145.76-107.32 137.26 118L358.72 349.6l131.4 124.5-134.73-120.89 125.24 130.71L351.9 356.66l118.78 136.61-122.44-133.34 112.04 142.19-115.85-139.1 105.05 147.44-109.01-144.54 97.81 152.35-101.9-149.64 90.33 156.9-94.55-154.39 82.65 161.08-86.99-158.78 74.78 164.88-79.22-162.79 66.73 168.31-71.26-166.44 58.52 171.34-63.15-169.69 50.18 173.97-54.87-172.54 41.72 176.18-46.48-174.99 33.16 178-37.97-177.03 24.53 179.39-29.38-178.66 15.83 180.37-20.71-179.88 7.1 180.93-12-180.67-1.64 181.06-3.27-181.04-10.38 180.77 5.48-180.98-19.1 180.05 14.21-180.5-27.77 178.92 22.91-179.61-36.38 177.37 31.56-178.29-44.9 175.4 40.13-176.55-53.32 173.02 48.62-174.41-61.62 170.25 56.98-171.86-69.76 167.07 65.21-168.89-77.75 163.5 73.29-165.56-85.56 159.56 81.2-161.82-93.16 155.23 88.92-157.7-100.55 150.55 96.44-153.22-107.71 145.51 103.72-148.38-114.6 140.14 110.76-143.19L96.055 494.95 213.61 357.28 86.018 485.7 210.08 353.87 76.438 475.96 206.72 350.29 67.34 465.78l136.2-119.23L58.744 455.17 200.54 342.66 50.67 444.16l147.07-105.53-154.602 94.14 151.992-98.29-158.965 86.55z"/></svg>